<svg width="51" height="51" viewBox="0 0 51 51" fill="none" xmlns="http://www.w3.org/2000/svg">
<g filter="url(#filter0_d)">
<path d="M47 27.95L40.55 19.35L34.1 27.95H38.1979C37.2605 33.2584 32.9562 37.5627 27.65 38.4979V23.65H31.95V19.35H27.65V15.7724C30.9675 14.7856 33.4851 11.638 33.4851 7.98725C33.4851 3.5819 29.9032 0 25.5 0C21.0968 0 17.5149 3.5819 17.5149 7.98725C17.5149 11.638 20.0326 14.7856 23.35 15.7724V19.35H19.05V23.65H23.35V38.4979C18.0417 37.5627 13.7374 33.2584 12.8021 27.95H16.9L10.45 19.35L4 27.95H8.45695C9.5556 36.3028 16.9043 43 25.5 43C34.0957 43 41.4444 36.3028 42.5431 27.95H47ZM21.8149 7.98725C21.8149 5.9555 23.4683 4.3 25.5 4.3C27.5318 4.3 29.1851 5.9555 29.1851 7.98725C29.1851 10.0319 27.463 11.825 25.5 11.825C23.5371 11.825 21.8149 10.0319 21.8149 7.98725Z" fill="#6C7077"/>
<path d="M10.45 19.7667L16.4 27.7H12.8021H12.5042L12.5559 27.9934C13.5094 33.4053 17.8947 37.7906 23.3066 38.7441L23.6 38.7958V38.4979V23.65V23.4H23.35H19.3V19.6H23.35H23.6V19.35V15.7724V15.5859L23.4213 15.5328C20.2052 14.5761 17.7649 11.5226 17.7649 7.98725C17.7649 3.71993 21.2349 0.25 25.5 0.25C29.7651 0.25 33.2351 3.71993 33.2351 7.98725C33.2351 11.5226 30.7948 14.5761 27.5787 15.5328L27.4 15.5859V15.7724V19.35V19.6H27.65H31.7V23.4H27.65H27.4V23.65V38.4979V38.7958L27.6934 38.7441C33.1031 37.7906 37.4884 33.4052 38.4441 27.9935L38.4959 27.7H38.1979H34.6L40.55 19.7667L46.5 27.7H42.5431H42.3238L42.2952 27.9174C41.2124 36.1493 33.9666 42.75 25.5 42.75C17.0334 42.75 9.78758 36.1493 8.70482 27.9174L8.67622 27.7H8.45695H4.5L10.45 19.7667ZM25.5 4.05C23.33 4.05 21.5649 5.81762 21.5649 7.98725C21.5649 10.1603 23.3895 12.075 25.5 12.075C27.6105 12.075 29.4351 10.1603 29.4351 7.98725C29.4351 5.81762 27.67 4.05 25.5 4.05Z" stroke="black" stroke-width="0.5"/>
</g>
<defs>
<filter id="filter0_d" x="0" y="0" width="51" height="51" filterUnits="userSpaceOnUse" color-interpolation-filters="sRGB">
<feFlood flood-opacity="0" result="BackgroundImageFix"/>
<feColorMatrix in="SourceAlpha" type="matrix" values="0 0 0 0 0 0 0 0 0 0 0 0 0 0 0 0 0 0 127 0"/>
<feOffset dy="4"/>
<feGaussianBlur stdDeviation="2"/>
<feColorMatrix type="matrix" values="0 0 0 0 0 0 0 0 0 0 0 0 0 0 0 0 0 0 0.25 0"/>
<feBlend mode="normal" in2="BackgroundImageFix" result="effect1_dropShadow"/>
<feBlend mode="normal" in="SourceGraphic" in2="effect1_dropShadow" result="shape"/>
</filter>
</defs>
</svg>
