<svg width="37" height="37" viewBox="0 0 37 37" fill="none" xmlns="http://www.w3.org/2000/svg">
<path d="M20.35 22.2001H25.9001H26.8251C28.355 22.2001 29.6001 20.955 29.6001 19.425V2.77501C29.6001 1.24505 28.355 0 26.8251 0H2.77501C1.24505 0 0 1.24505 0 2.77501V20.35V22.2001V29.6001L9.86607 22.2001H20.35ZM3.70001 22.0151L3.98491 21.9855L3.70001 22.2001V22.0151Z" fill="#72EDF2"/>
<path d="M34.2252 11.0996H33.3001V14.7996V19.5856V22.2015C33.3001 24.2365 31.6481 25.8885 29.6186 25.8996H28.3662H25.9001H16.6501H14.8001H11.1001V26.8246C11.1001 28.3546 12.3452 29.5997 13.8751 29.5997H14.8001H16.6501H25.9001H27.1341L37.0002 36.9997V29.5997V27.7496V24.0515V20.3478V13.8746C37.0002 12.3447 35.7551 11.0996 34.2252 11.0996Z" fill="white"/>
</svg>
