<svg width="30" height="30" viewBox="0 0 30 30" fill="none" xmlns="http://www.w3.org/2000/svg">
<path d="M20.35 22.2001H25.9001H26.8251C28.355 22.2001 29.6001 20.955 29.6001 19.425V2.77501C29.6001 1.24505 28.355 0 26.8251 0H2.77501C1.24505 0 0 1.24505 0 2.77501V20.35V22.2001V29.6001L9.86607 22.2001H20.35ZM3.70001 22.0151L3.98491 21.9855L3.70001 22.2001V22.0151Z" fill="#72EDF2"/>
<path d="M23.2252 0.0996094H22.3001V3.79962V8.58558V11.2015C22.3001 13.2365 20.6481 14.8885 18.6186 14.8996H17.3662H14.9001H5.65011H3.80011H0.100098V15.8246C0.100098 17.3546 1.34515 18.5997 2.8751 18.5997H3.80011H5.65011H14.9001H16.1341L26.0002 25.9997V18.5997V16.7496V13.0515V9.34778V2.87462C26.0002 1.34466 24.7551 0.0996094 23.2252 0.0996094Z" fill="white"/>
</svg>
