<svg width="22" height="38" viewBox="0 0 22 38" fill="none" xmlns="http://www.w3.org/2000/svg">
<path d="M20.6539 0.182638L15.5747 0.174805C9.86827 0.174805 6.18055 3.81132 6.18055 9.4398V13.7116H1.07357C0.632265 13.7116 0.274902 14.0555 0.274902 14.4796V20.6689C0.274902 21.0931 0.632672 21.4366 1.07357 21.4366H6.18055V37.0542C6.18055 37.4784 6.53791 37.8219 6.97921 37.8219H13.6424C14.0837 37.8219 14.441 37.478 14.441 37.0542V21.4366H20.4123C20.8536 21.4366 21.211 21.0931 21.211 20.6689L21.2134 14.4796C21.2134 14.276 21.129 14.0809 20.9795 13.9368C20.83 13.7927 20.6262 13.7116 20.4143 13.7116H14.441V10.0903C14.441 8.34982 14.8726 7.46625 17.2315 7.46625L20.6531 7.46507C21.094 7.46507 21.4514 7.1212 21.4514 6.69743V0.950282C21.4514 0.526903 21.0944 0.183421 20.6539 0.182638Z" fill="#2272FF"/>
</svg>
