<svg width="80" height="80" viewBox="0 0 80 80" fill="none" xmlns="http://www.w3.org/2000/svg">
<path d="M48.6539 21.1826L43.5747 21.1748C37.8683 21.1748 34.1805 24.8113 34.1805 30.4398V34.7116H29.0736C28.6323 34.7116 28.2749 35.0555 28.2749 35.4796V41.6689C28.2749 42.0931 28.6327 42.4366 29.0736 42.4366H34.1805V58.0542C34.1805 58.4784 34.5379 58.8219 34.9792 58.8219H41.6424C42.0837 58.8219 42.441 58.478 42.441 58.0542V42.4366H48.4123C48.8536 42.4366 49.211 42.0931 49.211 41.6689L49.2134 35.4796C49.2134 35.276 49.129 35.0809 48.9795 34.9368C48.83 34.7927 48.6262 34.7116 48.4143 34.7116H42.441V31.0903C42.441 29.3498 42.8726 28.4662 45.2315 28.4662L48.6531 28.4651C49.094 28.4651 49.4514 28.1212 49.4514 27.6974V21.9503C49.4514 21.5269 49.0944 21.1834 48.6539 21.1826Z" fill="#2272FF"/>
</svg>
