<svg width="23" height="25" viewBox="0 0 23 25" fill="none" xmlns="http://www.w3.org/2000/svg">
<path d="M2.55556 25H7.66667H15.3333H20.4444C21.8538 25 23 23.8788 23 22.5V11.2502C23 10.9189 22.8658 10.6002 22.6256 10.3664L12.4034 0.366558C11.9038 -0.122186 11.0962 -0.122186 10.5966 0.366558L0.374389 10.3664C0.134167 10.6002 0 10.9189 0 11.2502V22.5C0 23.8788 1.14617 25 2.55556 25ZM8.94444 22.5V16.2501H14.0556V22.5H8.94444ZM2.55556 11.7677L11.5 3.01778L20.4444 11.7677L20.4457 22.5H16.6111V16.2501C16.6111 14.8714 15.4649 13.7501 14.0556 13.7501H8.94444C7.53506 13.7501 6.38889 14.8714 6.38889 16.2501V22.5H2.55556V11.7677Z" fill="white"/>
</svg>
