<svg width="44" height="36" viewBox="0 0 44 36" fill="none" xmlns="http://www.w3.org/2000/svg">
<path d="M40.049 4.4V3.95102H39.6H4.4H3.95102V4.4V5.5264V5.74599L4.12436 5.88081L21.7244 19.5692L22 19.7836L22.2757 19.5692L39.8757 5.87859L40.049 5.74377V5.5242V4.4ZM3.95102 30.8V31.249H4.4H39.6044H40.0535L40.0534 30.7999L40.049 11.0967L40.0488 10.1789L39.3243 10.7424L23.0751 23.3814L23.0739 23.3824C22.76 23.6283 22.381 23.751 22 23.751C21.619 23.751 21.24 23.6283 20.9261 23.3823L20.9249 23.3814L4.67566 10.7424L3.95102 10.1788V11.0968V30.8ZM4.4 0.44898H39.6C41.7786 0.44898 43.551 2.22136 43.551 4.4V30.8C43.551 32.9786 41.7786 34.751 39.6 34.751H4.4C2.22136 34.751 0.44898 32.9786 0.44898 30.8V4.4C0.44898 2.22136 2.22136 0.44898 4.4 0.44898Z" fill="white" stroke="black" stroke-width="0.897959"/>
</svg>
