<svg width="13" height="13" viewBox="0 0 13 13" fill="none" xmlns="http://www.w3.org/2000/svg">
<path d="M1.7069 4.4707C1.9682 3.8506 2.3426 3.29485 2.8184 2.81905C3.2968 2.3413 3.85255 1.9669 4.4707 1.70755C5.72845 1.17715 7.18835 1.17 8.4552 1.6809C8.48575 2.55515 9.1936 3.25 10.075 3.25C10.9759 3.25 11.7 2.5259 11.7 1.625C11.7 0.7241 10.9759 0 10.075 0C9.62715 0 9.2222 0.1794 8.92905 0.47125C7.3489 -0.1612 5.5341 -0.15145 3.9663 0.5096C3.1928 0.8346 2.4973 1.3026 1.8993 1.89995C1.3039 2.4947 0.83655 3.1902 0.5096 3.96565C0.1716 4.7671 0 5.6199 0 6.5H1.3C1.3 5.7941 1.43715 5.1116 1.7069 4.4707ZM11.2924 8.5293C11.0318 9.1481 10.6574 9.7045 10.181 10.181C9.7045 10.6574 9.1481 11.0318 8.52865 11.2924C7.27025 11.8228 5.81035 11.83 4.54415 11.3191C4.51425 10.4448 3.8064 9.75 2.925 9.75C2.0241 9.75 1.3 10.4741 1.3 11.375C1.3 12.2759 2.0241 13 2.925 13C3.37285 13 3.7778 12.8206 4.07095 12.5287C4.8425 12.8388 5.65825 13 6.5 13C7.3801 13 8.23225 12.8284 9.03305 12.491C9.80785 12.1641 10.504 11.6961 11.1 11.1C11.6961 10.504 12.1641 9.8085 12.491 9.0337C12.8284 8.23225 13 7.3801 13 6.5H11.7C11.7 7.20525 11.5628 7.88775 11.2924 8.5293Z" fill="#005DFF"/>
<path d="M6.50048 3.55029C4.87418 3.55029 3.55078 4.87369 3.55078 6.49999C3.55078 8.12629 4.87418 9.44969 6.50048 9.44969C8.12678 9.44969 9.45018 8.12629 9.45018 6.49999C9.45018 4.87369 8.12678 3.55029 6.50048 3.55029Z" fill="#005DFF"/>
</svg>
