<svg width="24" height="26" viewBox="0 0 24 26" fill="none" xmlns="http://www.w3.org/2000/svg">
<path d="M9.14232 19.8524C8.94072 20.4032 7.48387 23.3493 7.18014 23.9508C6.87909 24.5469 6.72588 24.9506 6.47322 25.1003C6.22055 25.25 5.01368 25.25 3.60521 24.7501C2.19674 24.2502 0.91192 21.8548 0.739894 20.7026C0.586682 19.668 0.519487 18.3607 0.97912 16.9251C1.25866 16.0562 1.6296 14.9387 2.2505 13.5058C4.86316 7.49065 10.9513 3.56075 11.3545 3.26133L11.365 3.2535C11.8052 2.92641 14.6503 0.8125 17.5931 0.8125C20.5606 0.8125 22.0174 2.3604 22.6222 2.91112C22.8518 3.11209 23.0371 3.35807 23.1667 3.63363C23.2962 3.9092 23.367 4.2084 23.3748 4.51248C23.3762 4.89489 23.369 5.27728 23.3533 5.65937C23.3372 6.0283 23.4931 6.52288 22.3239 7.00676C21.117 7.50669 18.1495 8.70705 17.8458 8.85676C17.5447 9.00914 17.1926 9.10806 16.7894 8.90755C16.3863 8.70705 16.1363 8.60813 15.7842 8.30871C15.432 8.00929 14.9966 7.68046 14.7278 7.41045C14.4268 7.10835 14.1015 6.79557 13.4967 7.14578C12.892 7.496 10.919 8.69903 9.31972 10.4822C7.26615 12.7733 6.62912 14.7062 6.32807 15.305C6.02702 15.9038 6.07541 16.2541 6.4786 16.6043C6.88178 16.9545 8.23918 18.104 8.84127 18.5051C9.44337 18.9061 9.34391 19.3044 9.14232 19.8524Z" fill="#F2F2F2"/>
</svg>
