<svg width="112" height="112" viewBox="0 0 112 112" fill="none" xmlns="http://www.w3.org/2000/svg">
<path d="M91.4295 65.7473C91.0281 65.7473 90.6432 65.5878 90.3593 65.304C90.0755 65.0201 89.916 64.6352 89.916 64.2337V59.7386C89.916 59.3372 90.0755 58.9522 90.3593 58.6684C90.6432 58.3846 91.0281 58.2251 91.4295 58.2251C91.8309 58.2251 92.2159 58.3846 92.4998 58.6684C92.7836 58.9522 92.9431 59.3372 92.9431 59.7386V64.2337C92.9431 64.6352 92.7836 65.0201 92.4998 65.304C92.2159 65.5878 91.8309 65.7473 91.4295 65.7473Z" fill="black"/>
<path d="M43.1034 108.973C42.702 108.973 42.317 108.814 42.0332 108.53C41.7493 108.246 41.5899 107.861 41.5899 107.46V4.54063C41.5888 4.32847 41.6324 4.11846 41.7177 3.92422C41.803 3.72998 41.9283 3.55585 42.0853 3.41314C42.2422 3.27042 42.4275 3.1623 42.629 3.0958C42.8304 3.0293 43.0436 3.0059 43.2547 3.02712L91.5812 7.91577C91.9559 7.95342 92.303 8.12935 92.5549 8.40921C92.8068 8.68907 92.9453 9.05277 92.9434 9.42928V34.145C92.9434 34.5464 92.7839 34.9313 92.5001 35.2152C92.2163 35.499 91.8313 35.6585 91.4299 35.6585C91.0285 35.6585 90.6435 35.499 90.3597 35.2152C90.0758 34.9313 89.9164 34.5464 89.9164 34.145V10.7975L44.6169 6.21458V105.727L89.9164 99.5893V74.8282C89.9164 74.4268 90.0758 74.0418 90.3597 73.758C90.6435 73.4741 91.0285 73.3147 91.4299 73.3147C91.8313 73.3147 92.2163 73.4741 92.5001 73.758C92.7839 74.0418 92.9434 74.4268 92.9434 74.8282V100.906C92.9435 101.272 92.8108 101.626 92.5701 101.902C92.3294 102.177 91.9969 102.357 91.6342 102.406L43.3077 108.959C43.24 108.968 43.1717 108.973 43.1034 108.973Z" fill="black"/>
<path d="M91.4295 50.6574C91.0281 50.6574 90.6432 50.498 90.3593 50.2141C90.0755 49.9303 89.916 49.5453 89.916 49.1439V44.7396C89.916 44.3382 90.0755 43.9532 90.3593 43.6694C90.6432 43.3855 91.0281 43.2261 91.4295 43.2261C91.8309 43.2261 92.2159 43.3855 92.4998 43.6694C92.7836 43.9532 92.9431 44.3382 92.9431 44.7396V49.1439C92.9431 49.5453 92.7836 49.9303 92.4998 50.2141C92.2159 50.498 91.8309 50.6574 91.4295 50.6574Z" fill="black"/>
<path d="M20.6737 103.382C20.2723 103.382 19.8873 103.222 19.6035 102.939C19.3196 102.655 19.1602 102.27 19.1602 101.868V9.38363C19.1602 8.98222 19.3196 8.59725 19.6035 8.31342C19.8873 8.02958 20.2723 7.87012 20.6737 7.87012H43.1039C43.5053 7.87012 43.8903 8.02958 44.1742 8.31342C44.458 8.59725 44.6175 8.98222 44.6175 9.38363C44.6175 9.78504 44.458 10.17 44.1742 10.4538C43.8903 10.7377 43.5053 10.8971 43.1039 10.8971H22.1872V101.868C22.1872 102.27 22.0277 102.655 21.7439 102.939C21.46 103.222 21.0751 103.382 20.6737 103.382Z" fill="black"/>
<path d="M29.2225 103.382C28.8211 103.382 28.4361 103.223 28.1523 102.939C27.8684 102.655 27.709 102.27 27.709 101.869V18.2245C27.709 17.823 27.8684 17.4381 28.1523 17.1542C28.4361 16.8704 28.8211 16.7109 29.2225 16.7109H43.0939C43.4953 16.7109 43.8802 16.8704 44.1641 17.1542C44.4479 17.4381 44.6074 17.823 44.6074 18.2245C44.6074 18.6259 44.4479 19.0108 44.1641 19.2947C43.8802 19.5785 43.4953 19.738 43.0939 19.738H30.736V101.869C30.736 102.27 30.5766 102.655 30.2927 102.939C30.0089 103.223 29.6239 103.382 29.2225 103.382Z" fill="black"/>
<path d="M43.0931 103.382H4.61508C4.21367 103.382 3.8287 103.223 3.54486 102.939C3.26102 102.655 3.10156 102.27 3.10156 101.868C3.10156 101.467 3.26102 101.082 3.54486 100.798C3.8287 100.514 4.21367 100.355 4.61508 100.355H43.0931C43.4945 100.355 43.8795 100.514 44.1633 100.798C44.4472 101.082 44.6066 101.467 44.6066 101.868C44.6066 102.27 44.4472 102.655 44.1633 102.939C43.8795 103.223 43.4945 103.382 43.0931 103.382Z" fill="black"/>
<path d="M107.385 103.382H84.2166C83.8152 103.382 83.4303 103.223 83.1464 102.939C82.8626 102.655 82.7031 102.27 82.7031 101.868C82.7031 101.467 82.8626 101.082 83.1464 100.798C83.4303 100.514 83.8152 100.355 84.2166 100.355H107.385C107.787 100.355 108.172 100.514 108.456 100.798C108.74 101.082 108.899 101.467 108.899 101.868C108.899 102.27 108.74 102.655 108.456 102.939C108.172 103.223 107.787 103.382 107.385 103.382Z" fill="black"/>
<path d="M53.6085 61.4699C52.5267 61.4699 51.4691 61.1491 50.5696 60.5481C49.6701 59.9471 48.969 59.0928 48.555 58.0933C48.141 57.0938 48.0327 55.994 48.2438 54.933C48.4548 53.872 48.9758 52.8973 49.7408 52.1324C50.5057 51.3674 51.4804 50.8464 52.5414 50.6354C53.6024 50.4243 54.7022 50.5326 55.7017 50.9466C56.7012 51.3606 57.5555 52.0617 58.1565 52.9612C58.7576 53.8607 59.0784 54.9183 59.0784 56.0001C59.0768 57.4503 58.5 58.8406 57.4745 59.8661C56.4491 60.8915 55.0587 61.4683 53.6085 61.4699ZM53.6085 53.5573C53.1254 53.5573 52.6531 53.7006 52.2514 53.969C51.8496 54.2374 51.5365 54.6189 51.3517 55.0653C51.1668 55.5116 51.1184 56.0028 51.2126 56.4767C51.3069 56.9505 51.5395 57.3858 51.8812 57.7274C52.2228 58.0691 52.6581 58.3017 53.1319 58.396C53.6058 58.4902 54.097 58.4419 54.5433 58.257C54.9897 58.0721 55.3712 57.759 55.6396 57.3573C55.9081 56.9555 56.0513 56.4833 56.0513 56.0001C56.0505 55.3525 55.7929 54.7316 55.335 54.2737C54.877 53.8157 54.2561 53.5581 53.6085 53.5573Z" fill="black"/>
</svg>
