<svg width="19" height="20" viewBox="0 0 19 20" fill="none" xmlns="http://www.w3.org/2000/svg">
<path d="M0.26881 14.136L1.26881 15.866C1.79981 16.783 3.07781 17.127 3.99881 16.596L4.52781 16.29C5.10981 16.747 5.74881 17.122 6.42381 17.402V18C6.42381 19.103 7.32081 20 8.42381 20H10.4238C11.5268 20 12.4238 19.103 12.4238 18V17.402C13.0988 17.122 13.7378 16.747 14.3198 16.291L14.8488 16.597C15.7718 17.127 17.0468 16.785 17.5798 15.866L18.5788 14.137C19.1308 13.182 18.8028 11.956 17.8478 11.405L17.3428 11.113C17.3968 10.742 17.4238 10.371 17.4238 10C17.4238 9.629 17.3968 9.257 17.3428 8.889L17.8478 8.597C18.8028 8.045 19.1308 6.82 18.5788 5.865L17.5798 4.136C17.0488 3.216 15.7718 2.871 14.8488 3.404L14.3198 3.71C13.7378 3.253 13.0988 2.878 12.4238 2.598V2C12.4238 0.897 11.5268 0 10.4238 0H8.42381C7.32081 0 6.42381 0.897 6.42381 2V2.598C5.74881 2.878 5.10981 3.253 4.52781 3.709L3.99881 3.403C3.07481 2.872 1.79881 3.216 1.26781 4.135L0.26881 5.864C-0.28319 6.819 0.0448099 8.045 0.99981 8.596L1.50481 8.888C1.45081 9.257 1.42381 9.629 1.42381 10C1.42381 10.371 1.45081 10.742 1.50481 11.111L0.99981 11.403C0.0448099 11.955 -0.28319 13.181 0.26881 14.136ZM3.59481 11.378C3.48181 10.925 3.42381 10.461 3.42381 10C3.42381 9.538 3.48181 9.074 3.59381 8.622C3.70181 8.189 3.51081 7.737 3.12381 7.514L2.00081 6.864L2.99881 5.135L4.14381 5.797C4.52781 6.018 5.01081 5.962 5.33181 5.655C6.01481 5.008 6.83881 4.524 7.71581 4.256C8.13681 4.128 8.42381 3.739 8.42381 3.3V2H10.4238V3.3C10.4238 3.739 10.7108 4.128 11.1318 4.256C12.0088 4.525 12.8328 5.008 13.5158 5.655C13.8368 5.962 14.3218 6.017 14.7038 5.797L15.8478 5.136L16.8478 6.865L15.7238 7.514C15.3368 7.738 15.1458 8.19 15.2538 8.622C15.3658 9.074 15.4238 9.538 15.4238 10C15.4238 10.461 15.3658 10.925 15.2528 11.378C15.1458 11.811 15.3368 12.263 15.7238 12.486L16.8468 13.135L15.8488 14.864L14.7038 14.203C14.3208 13.982 13.8368 14.037 13.5158 14.345C12.8328 14.992 12.0088 15.476 11.1318 15.744C10.7108 15.872 10.4238 16.261 10.4238 16.7L10.4258 18H8.42381V16.7C8.42381 16.261 8.13681 15.872 7.71581 15.744C6.83881 15.475 6.01481 14.992 5.33181 14.345C5.14181 14.163 4.89381 14.07 4.64381 14.07C4.47181 14.07 4.29981 14.114 4.14381 14.204L2.99981 14.866L1.99981 13.137L3.12381 12.486C3.51081 12.263 3.70181 11.811 3.59481 11.378Z" fill="white"/>
<path style="transform: translate(5px, 6px);" d="M4.42261 8C6.62861 8 8.42261 6.206 8.42261 4C8.42261 1.794 6.62861 0 4.42261 0C2.21661 0 0.422607 1.794 0.422607 4C0.422607 6.206 2.21661 8 4.42261 8ZM4.42261 2C5.50661 2 6.42261 2.916 6.42261 4C6.42261 5.084 5.50661 6 4.42261 6C3.33861 6 2.42261 5.084 2.42261 4C2.42261 2.916 3.33861 2 4.42261 2Z" fill="white"/>
</svg>
