<svg width="15" height="12" viewBox="0 0 15 12" fill="none" xmlns="http://www.w3.org/2000/svg">
<path d="M13.3143 7.39591L12.2049 6.5084L7.2128 2.51492C6.29277 1.78441 4.80765 1.78661 3.89106 2.51988C2.97448 3.25315 2.97172 4.44125 3.88486 5.17727L8.87671 9.17195C9.08088 9.33537 9.41206 9.33537 9.61634 9.17195C9.82051 9.00852 9.82051 8.74367 9.61634 8.58024L4.62449 4.58557C4.11395 4.17713 4.11395 3.51506 4.62449 3.10663C5.13504 2.69819 5.96263 2.69819 6.47317 3.10663L11.4665 7.10011L12.5759 7.98753C13.495 8.72309 13.4947 9.91541 12.5753 10.6506C11.6559 11.3858 10.1656 11.3856 9.24647 10.6501L8.32219 9.91036L3.14535 5.76888L2.77547 5.47308C1.4827 4.40652 1.49912 2.70738 2.81222 1.65681C4.12543 0.606325 6.24936 0.593189 7.58256 1.62741L13.1292 6.06478C13.2613 6.17043 13.4539 6.21168 13.6343 6.173C13.8148 6.13433 13.9558 6.02161 14.0042 5.87719C14.0525 5.73278 14.0008 5.57882 13.8688 5.47308L8.32219 1.0358C6.58513 -0.347513 3.77623 -0.344941 2.04319 1.04158C0.310035 2.42802 0.30682 4.67514 2.03596 6.06478L7.58256 10.5021L8.50822 11.2418C9.84314 12.2675 11.9587 12.2504 13.2673 11.2032C14.576 10.156 14.5968 8.46357 13.3143 7.39591Z" fill="#9FA4BB"/>
</svg>
