<svg width="38" height="32" viewBox="0 0 38 32" fill="none" xmlns="http://www.w3.org/2000/svg">
<path d="M37.8321 4.50692C36.4474 5.12081 34.9578 5.53603 33.3957 5.72147C34.9907 4.76607 36.2147 3.25437 36.7924 1.45011C35.3 2.33525 33.6462 2.97736 31.8877 3.32347C30.4787 1.82329 28.4713 0.885742 26.2485 0.885742C21.9837 0.885742 18.5247 4.34394 18.5247 8.60781C18.5247 9.21307 18.5933 9.8022 18.7258 10.3677C12.3067 10.0458 6.61509 6.97172 2.80534 2.29839C2.14062 3.43865 1.7593 4.76607 1.7593 6.18102C1.7593 8.85947 3.12388 11.2241 5.19522 12.6085C3.92972 12.5688 2.73795 12.2215 1.69709 11.6416C1.69652 11.6744 1.69652 11.7072 1.69652 11.7395C1.69652 15.481 4.36 18.6018 7.89269 19.3107C7.24525 19.488 6.56152 19.5819 5.85821 19.5819C5.35938 19.5819 4.87611 19.5341 4.40493 19.4443C5.38761 22.5114 8.23945 24.7442 11.6201 24.8069C8.97617 26.8784 5.64624 28.1125 2.02657 28.1125C1.40448 28.1125 0.788144 28.0762 0.185059 28.0043C3.60139 30.1961 7.66228 31.474 12.0239 31.474C26.2306 31.474 33.9999 19.7075 33.9999 9.50216C33.9999 9.16757 33.9924 8.83413 33.9774 8.50358C35.4877 7.41515 36.797 6.05548 37.8321 4.50692Z" fill="#2272FF"/>
</svg>
