<svg width="31" height="25" viewBox="0 0 31 25" fill="none" xmlns="http://www.w3.org/2000/svg">
<path d="M28.2163 3.1V2.78367H27.9H3.1H2.78367V3.1V3.8936V4.04831L2.9058 4.1433L15.3058 13.7874L15.5 13.9384L15.6942 13.7874L28.0942 4.14173L28.2163 4.04675V3.89205V3.1ZM2.78367 21.7V22.0163H3.1H27.9031H28.2195L28.2194 21.6999L28.2163 7.81813L28.2162 7.17152L27.7058 7.56851L16.2575 16.4733L16.2566 16.4739C16.0355 16.6472 15.7684 16.7337 15.5 16.7337C15.2316 16.7337 14.9645 16.6472 14.7434 16.4739L14.7425 16.4733L3.29421 7.56851L2.78367 7.1714V7.8182V21.7ZM3.1 0.316327H27.9C29.4349 0.316327 30.6837 1.56505 30.6837 3.1V21.7C30.6837 23.2349 29.4349 24.4837 27.9 24.4837H3.1C1.56505 24.4837 0.316327 23.2349 0.316327 21.7V3.1C0.316327 1.56505 1.56505 0.316327 3.1 0.316327Z" fill="white" stroke="black" stroke-width="0.632653"/>
</svg>
