<svg width="46" height="43" viewBox="0 0 46 43" fill="none" xmlns="http://www.w3.org/2000/svg">
<path d="M15.9483 37.2233L15.9486 37.2231C17.4988 36.0621 19.3874 34.65 22.9862 34.65C26.5842 34.65 28.4727 36.0596 30.0246 37.2181L30.0287 37.2211L30.0288 37.2212L30.042 37.2311C30.7081 37.7288 31.2886 38.1626 31.9647 38.4673C32.653 38.7775 33.4295 38.95 34.4931 38.95C35.5567 38.95 36.3332 38.7775 37.0215 38.4673C37.6976 38.1626 38.2781 37.7288 38.9442 37.2311L38.9574 37.2212L38.9575 37.2211L38.9616 37.2181C40.4772 36.0868 42.3137 34.7159 45.75 34.6523V38.4535C44.8083 38.4799 44.0887 38.6573 43.4499 38.9466C42.7664 39.2562 42.185 39.6904 41.541 40.1714L41.531 40.1788L41.5309 40.1789L41.5304 40.1793C39.9802 41.3382 38.0916 42.75 34.4931 42.75C30.8946 42.75 29.006 41.3382 27.4558 40.1793L27.4553 40.1789L27.4552 40.1788L27.4452 40.1714C26.8012 39.6904 26.2198 39.2562 25.5363 38.9466C24.8421 38.6322 24.0525 38.45 22.9862 38.45C21.9226 38.45 21.1466 38.6225 20.4589 38.9328C19.7849 39.2368 19.2059 39.6694 18.5417 40.1657L18.5241 40.1789L18.524 40.1789L18.5206 40.1815C16.9708 41.34 15.0847 42.75 11.4885 42.75C7.89435 42.75 6.00809 41.338 4.45776 40.1769L4.4575 40.1767L4.4392 40.163C3.77649 39.6681 3.19823 39.2362 2.52498 38.9325C1.89293 38.6474 1.18621 38.4785 0.25 38.4533V34.6523C3.68539 34.716 5.51752 36.0881 7.03119 37.2217L7.03304 37.2231L7.0333 37.2233L7.05165 37.237C7.71434 37.732 8.29257 38.1638 8.9655 38.4675C9.65231 38.7774 10.4271 38.95 11.4885 38.95C12.5521 38.95 13.328 38.7775 14.0155 38.4675C14.689 38.1639 15.2673 37.7319 15.93 37.237L15.9483 37.2233ZM9.25689 14.2184L9.45 14.1733V13.975V6.45215C9.45 5.55633 10.1276 4.76885 11.095 4.58878L11.0951 4.58874L20.7459 2.78489L20.95 2.74675V2.53915V0.25H25.05V2.53915V2.74675L25.2541 2.78489L34.9049 4.58874L34.905 4.58878C35.8724 4.76885 36.55 5.55633 36.55 6.45215V13.975V14.1733L36.7431 14.2184L41.0918 15.2347L37.3405 29.2636L36.6207 31.9548L36.6206 31.9554L36.6085 32H36.6072H36.6038H36.6005H36.5971H36.5937H36.5903H36.5868H36.5833H36.5798H36.5763H36.5728H36.5692H36.5656H36.562H36.5583H36.5547H36.551H36.5473H36.5436H36.5398H36.536H36.5322H36.5284H36.5246H36.5207H36.5168H36.5129H36.509H36.5051H36.5011H36.4971H36.4931H36.489H36.485H36.4809H36.4768H36.4727H36.4686H36.4644H36.4602H36.456H36.4518H36.4476H36.4433H36.439H36.4347H36.4304H36.4261H36.4217H36.4174H36.413H36.4086H36.4041H36.3997H36.3952H36.3907H36.3862H36.3817H36.3772H36.3726H36.368H36.3634H36.3588H36.3542H36.3495H36.3449H36.3402H36.3355H36.3308H36.326H36.3213H36.3165H36.3118H36.307H36.3021H36.2973H36.2925H36.2876H36.2827H36.2778H36.2729H36.268H36.263H36.2581H36.2531H36.2481H36.2431H36.2381H36.2331H36.228H36.223H36.2179H36.2128H36.2077H36.2026H36.1974H36.1923H36.1871H36.1819H36.1768H36.1716H36.1663H36.1611H36.1559H36.1506H36.1454H36.1401H36.1348H36.1295H36.1242H36.1188H36.1135H36.1081H36.1028H36.0974H36.092H36.0866H36.0812H36.0758H36.0703H36.0649H36.0594H36.0539H36.0485H36.043H36.0375H36.032H36.0264H36.0209H36.0153H36.0098H36.0042H35.9987H35.9931H35.9875H35.9819H35.9763H35.9706H35.965H35.9594H35.9537H35.9481H35.9424H35.9367H35.931H35.9253H35.9196H35.9139H35.9082H35.9025H35.8967H35.891H35.8853H35.8795H35.8737H35.868H35.8622H35.8564H35.8506H35.8448H35.839H35.8332H35.8274H35.8215H35.8157H35.8099H35.804H35.7982H35.7923H35.7864H35.7806H35.7747H35.7688H35.7629H35.757H35.7511H35.7452H35.7393H35.7334H35.7275H35.7216H35.7157H35.7097H35.7038H35.6979H35.6919H35.686H35.68H35.6741H35.6681H35.6621H35.6562H35.6502H35.6442H35.6383H35.6323H35.6263H35.6203H35.6143H35.6084H35.6024H35.5964H35.5904H35.5844H35.5784H35.5724H35.5664H35.5604H35.5544H35.5484H35.5424H35.5363H35.5303H35.5243H35.5183H35.5123H35.5063H35.5003H35.4943H35.4882H35.4822H35.4762H35.4702H35.4642H35.4582H35.4522H35.4461H35.4401H35.4341H35.4281H35.4221H35.4161H35.4101H35.4041H35.3981H35.3921H35.3861H35.3801H35.3741H35.3681H35.3621H35.3561H35.3501H35.3441H35.3381H35.3321H35.3261H35.3202H35.3142H35.3082H35.3022H35.2963H35.2903H35.2844H35.2784H35.2724H35.2665H35.2606H35.2546H35.2487H35.2427H35.2368H35.2309H35.225H35.2191H35.2132H35.2072H35.2014H35.1955H35.1896H35.1837H35.1778H35.1719H35.1661H35.1602H35.1544H35.1485H35.1427H35.1368H35.131H35.1252H35.1194H35.1135H35.1077H35.1019H35.0961H35.0904H35.0846H35.0788H35.0731H35.0673H35.0616H35.0558H35.0501H35.0444H35.0387H35.0329H35.0272H35.0216H35.0159H35.0102H35.0045H34.9989H34.9932H34.9876H34.982H34.9764H34.9708H34.9652H34.9596H34.954H34.9484H34.9429H34.9373H34.9318H34.9262H34.9207H34.9152H34.9097H34.9042H34.8988H34.8933H34.8878H34.8824H34.877H34.8715H34.8661H34.8607H34.8554H34.85H34.8446H34.8393H34.8339H34.8286H34.8233H34.818H34.8127H34.8074H34.8022H34.7969H34.7917H34.7865H34.7813H34.7761H34.7709H34.7657H34.7606H34.7554H34.7503H34.7452H34.7401H34.735H34.7299H34.7249H34.7198H34.7148H34.7098H34.7048H34.6998H34.6949H34.6899H34.685H34.6801H34.6752H34.6703H34.6654H34.6605H34.6557H34.6509H34.6461H34.6413H34.6365H34.6317H34.627H34.6223H34.6176H34.6129H34.6082H34.6036H34.5989H34.5943H34.5897H34.5851H34.5805H34.576H34.5715H34.5669H34.5624H34.558H34.5535H34.5491H34.5447H34.5402H34.5359H34.5315H34.5272H34.5228H34.5185H34.5142H34.51H34.5057H34.5015H34.4973H34.4931C30.8946 32 29.006 30.5882 27.4558 29.4293L27.4553 29.4289L27.4552 29.4288L27.4451 29.4213C26.8012 28.9404 26.2197 28.5062 25.5363 28.1966C24.8421 27.8822 24.0525 27.7 22.9862 27.7C21.9226 27.7 21.1466 27.8725 20.4589 28.1828C19.7848 28.4868 19.2058 28.9194 18.5417 29.4157L18.5241 29.4289L18.524 29.4289L18.5206 29.4315C16.9708 30.59 15.0847 32 11.4885 32H11.4844H11.4802H11.476H11.4718H11.4676H11.4633H11.4591H11.4548H11.4505H11.4461H11.4418H11.4374H11.4331H11.4287H11.4242H11.4198H11.4154H11.4109H11.4064H11.4019H11.3974H11.3928H11.3883H11.3837H11.3791H11.3745H11.3698H11.3652H11.3605H11.3558H11.3512H11.3464H11.3417H11.337H11.3322H11.3274H11.3226H11.3178H11.313H11.3081H11.3033H11.2984H11.2935H11.2886H11.2837H11.2787H11.2738H11.2688H11.2638H11.2589H11.2538H11.2488H11.2438H11.2387H11.2337H11.2286H11.2235H11.2184H11.2133H11.2081H11.203H11.1978H11.1926H11.1874H11.1822H11.177H11.1718H11.1666H11.1613H11.156H11.1508H11.1455H11.1402H11.1348H11.1295H11.1242H11.1188H11.1135H11.1081H11.1027H11.0973H11.0919H11.0865H11.0811H11.0756H11.0702H11.0647H11.0592H11.0538H11.0483H11.0428H11.0373H11.0317H11.0262H11.0207H11.0151H11.0095H11.004H10.9984H10.9928H10.9872H10.9816H10.976H10.9704H10.9647H10.9591H10.9534H10.9478H10.9421H10.9364H10.9308H10.9251H10.9194H10.9137H10.9079H10.9022H10.8965H10.8908H10.885H10.8793H10.8735H10.8677H10.862H10.8562H10.8504H10.8446H10.8388H10.833H10.8272H10.8214H10.8156H10.8098H10.8039H10.7981H10.7923H10.7864H10.7806H10.7747H10.7689H10.763H10.7571H10.7512H10.7454H10.7395H10.7336H10.7277H10.7218H10.7159H10.71H10.7041H10.6982H10.6923H10.6863H10.6804H10.6745H10.6686H10.6626H10.6567H10.6508H10.6448H10.6389H10.633H10.627H10.6211H10.6151H10.6092H10.6032H10.5972H10.5913H10.5853H10.5794H10.5734H10.5675H10.5615H10.5555H10.5496H10.5436H10.5376H10.5317H10.5257H10.5197H10.5138H10.5078H10.5018H10.4959H10.4899H10.4839H10.478H10.472H10.466H10.4601H10.4541H10.4481H10.4422H10.4362H10.4303H10.4243H10.4184H10.4124H10.4065H10.4005H10.3946H10.3886H10.3827H10.3767H10.3708H10.3649H10.3589H10.353H10.3471H10.3411H10.3352H10.3293H10.3234H10.3175H10.3116H10.3057H10.2998H10.2939H10.288H10.2821H10.2762H10.2703H10.2644H10.2586H10.2527H10.2469H10.241H10.2351H10.2293H10.2235H10.2176H10.2118H10.206H10.2001H10.1943H10.1885H10.1827H10.1769H10.1711H10.1654H10.1596H10.1538H10.1481H10.1423H10.1365H10.1308H10.1251H10.1193H10.1136H10.1079H10.1022H10.0965H10.0908H10.0851H10.0795H10.0738H10.0681H10.0625H10.0568H10.0512H10.0456H10.04H10.0344H10.0288H10.0232H10.0176H10.012H10.0065H10.0009H9.99538H9.98985H9.98433H9.97881H9.97331H9.96782H9.96234H9.95687H9.95141H9.94596H9.94052H9.93509H9.92967H9.92426H9.91887H9.91349H9.90811H9.90275H9.8974H9.89206H9.88674H9.88142H9.87612H9.87083H9.86555H9.86029H9.85504H9.8498H9.84457H9.83935H9.83415H9.82896H9.82379H9.81862H9.81348H9.80834H9.80322H9.79811H9.79301H9.78793H9.78287H9.77781H9.77278H9.76775H9.76274H9.75775H9.75277H9.7478H9.74285H9.73792H9.733H9.72809H9.7232H9.71833H9.71347H9.70862H9.7038H9.69899H9.69419H9.68941H9.68465H9.6799H9.67517H9.67046H9.66576H9.66108H9.65641H9.65177H9.64714H9.64253H9.63793H9.63335H9.62879H9.62425H9.61973H9.61522H9.61073H9.60626H9.60181H9.59737H9.59296H9.58856H9.58418H9.57982H9.57548H9.57116H9.56685H9.56257H9.55831H9.55406H9.54984H9.54563H9.54144H9.53728H9.53313H9.529H9.5249H9.52081H9.51675H9.5127H9.50868H9.50467H9.50069H9.49673H9.49279H9.48887H9.48497H9.48109H9.47723H9.4734H9.46959H9.4658H9.46203H9.45828H9.45456H9.45086H9.44718H9.44352H9.43988H9.43627H9.43268H9.42912H9.42557H9.42205H9.41856H9.41508H9.41163H9.40821H9.4048H9.40142H9.39807H9.39474H9.39193L4.90819 15.2347L9.25689 14.2184ZM13.7541 7.96511L13.55 8.00326V8.21085V12.9V13.2152L13.8569 13.1434L23 11.0067L32.1431 13.1434L32.45 13.2152V12.9V8.21085V8.00326L32.2459 7.96511L23.0459 6.24511L23 6.23652L22.9541 6.24511L13.7541 7.96511Z" fill="#6C7077" stroke="black" stroke-width="0.5"/>
</svg>
